<?xml version="1.0" encoding="utf-8"?>
<!-- Generator: Adobe Illustrator 18.0.0, SVG Export Plug-In . SVG Version: 6.00 Build 0)  -->
<!DOCTYPE svg PUBLIC "-//W3C//DTD SVG 1.1//EN" "http://www.w3.org/Graphics/SVG/1.1/DTD/svg11.dtd">
<svg version="1.1" id="Layer_1" xmlns="http://www.w3.org/2000/svg" xmlns:xlink="http://www.w3.org/1999/xlink" x="0px" y="0px"
	 width="365px" height="108px" viewBox="0 0 365 108" style="enable-background:new 0 0 365 108;" xml:space="preserve">
<style type="text/css">
	.st0{fill:#362460;}
	.st1{fill:#01A79D;}
	.st2{fill:#00A79C;}
</style>
<rect x="0.5" y="18.6" class="st0" width="19.6" height="78.6"/>
<polygon class="st0" points="45.3,38.5 45.3,78.5 25.6,78.5 25.6,10.2 20.2,1.1 20.2,-0.1 43.3,-0.1 72.4,44.3 72.4,-0.1 92.1,-0.1 
	92.1,78.5 72.4,78.5 "/>
<polygon class="st1" points="183.3,18.8 164,18.8 164,-0.1 222.7,-0.1 222.7,18.8 203,18.8 203,78.5 183.3,78.5 "/>
<rect x="243.1" y="29.3" class="st0" width="1.4" height="11.1"/>
<path class="st0" d="M247,32.3h1.3v1.3c0.5-1,1.6-1.6,2.7-1.5c1.8,0,2.7,0.9,2.7,2.9v5.4h-1.3V35c0-1.2-0.4-1.7-1.5-1.7
	c-0.6,0-1.3,0.2-1.8,0.6c-0.5,0.4-0.7,1.1-0.7,1.7v4.7H247V32.3z"/>
<path class="st0" d="M260.9,38.2c0-0.8-0.6-1-1.7-1.2l-0.8-0.1c-1.7-0.2-2.7-0.8-2.7-2.3c0-1.5,1.1-2.3,3.2-2.3
	c1.9,0,3.1,0.7,3.2,2.4h-1.3c0-0.9-0.7-1.2-1.9-1.2c-1.4,0-1.9,0.5-1.9,1.2c0,0.7,0.7,1,1.7,1.2l0.7,0.1c1.9,0.2,2.8,0.9,2.8,2.4
	c0,1.6-1.2,2.4-3.3,2.4c-2.1,0-3.4-0.8-3.5-2.6h1.3c0,1,1,1.5,2.2,1.5S260.9,39,260.9,38.2z"/>
<path class="st0" d="M265.6,33.5v5c0,0.6,0.3,0.9,1,0.9c0.4,0,0.8-0.1,1.2-0.1l0,1.1c-0.5,0.1-1,0.2-1.5,0.2c-1.4,0-2-0.6-2-2.1v-5
	h-1.1v-1.2h1.1l0.1-2.3h1.1v2.3h2.1v1.2H265.6z"/>
<path class="st0" d="M269.5,32.3h1.3v8.1h-1.3L269.5,32.3z M269.5,29.3h1.4V31h-1.4V29.3z"/>
<path class="st0" d="M274.9,33.5v5c0,0.6,0.3,0.9,1,0.9c0.4,0,0.8-0.1,1.2-0.1v1.1c-0.5,0.1-1,0.2-1.5,0.2c-1.4,0-2-0.6-2-2.1v-5
	h-1.1v-1.2h1.1l0.1-2.3h1.1v2.3h2.1v1.2H274.9z"/>
<path class="st0" d="M285.3,40.4H284v-1.3c-0.5,1-1.5,1.5-2.5,1.5c-1.8,0-2.7-0.9-2.7-2.9v-5.4h1.3v5.4c0,1.2,0.5,1.7,1.6,1.7
	c0.6,0,1.3-0.2,1.7-0.6c0.5-0.4,0.7-1.1,0.7-1.7v-4.8h1.3L285.3,40.4z"/>
<path class="st0" d="M289.3,33.5v5c0,0.6,0.3,0.9,1,0.9c0.4,0,0.8-0.1,1.2-0.1v1.1c-0.5,0.1-1,0.2-1.5,0.2c-1.4,0-2-0.6-2-2.1v-5
	h-1.1v-1.2h1.1l0.1-2.3h1.1v2.3h2.1v1.2H289.3z"/>
<path class="st0" d="M298.7,36.4c0-1.9-0.7-3.1-2.3-3.1s-2.3,1.1-2.3,3.1c0,1.9,0.7,3.1,2.3,3.1S298.7,38.3,298.7,36.4z M300,36.4
	c0,2.7-1.2,4.2-3.7,4.2s-3.7-1.5-3.7-4.2c0-2.7,1.2-4.2,3.7-4.2S300,33.7,300,36.4z"/>
<polygon class="st0" points="313.3,40.4 307.9,31.7 307.9,40.4 306.6,40.4 306.6,29.3 307.9,29.3 313.3,38.1 313.3,29.3 314.7,29.3 
	314.7,40.4 "/>
<path class="st0" d="M322.2,36.5l-1.8,0.2c-1.5,0.1-2.5,0.3-2.5,1.5c0,0.9,0.6,1.3,1.5,1.3c1.5,0,2.7-1.1,2.7-2.2L322.2,36.5z
	 M317.1,34.7c0-1.6,1.2-2.6,3.3-2.6c2.3,0,3.1,1.2,3.1,2.6v5.6h-1.3v-1.2c-0.6,0.9-1.7,1.5-2.8,1.4c-1.5,0-2.7-0.8-2.7-2.4
	c0-2.1,1.8-2.4,3.6-2.6l1.9-0.2v-0.7c0-0.9-0.4-1.4-1.8-1.4c-1.3,0-2,0.4-2,1.4L317.1,34.7z"/>
<path class="st0" d="M331,37.9h1.3c0,1.7-1.2,2.7-3.3,2.7c-2.4,0-3.7-1.5-3.7-4.2c0-2.7,1.2-4.2,3.8-4.2c1.9,0,3.1,1,3.1,2.7h-1.3
	c0-0.9-0.6-1.5-1.8-1.5c-1.8,0-2.4,1.1-2.4,3.1c0,1.9,0.8,3.1,2.4,3.1C330.3,39.4,331,38.9,331,37.9z"/>
<path class="st0" d="M334.1,32.3h1.3v8.1h-1.3V32.3z M334.1,29.3h1.4V31h-1.4V29.3z"/>
<path class="st0" d="M343.4,36.4c0-1.9-0.7-3.1-2.3-3.1c-1.7,0-2.3,1.1-2.3,3.1c0,1.9,0.7,3.1,2.3,3.1S343.4,38.3,343.4,36.4z
	 M344.7,36.4c0,2.7-1.2,4.2-3.7,4.2c-2.5,0-3.7-1.5-3.7-4.2c0-2.7,1.2-4.2,3.7-4.2C343.5,32.2,344.7,33.7,344.7,36.4z"/>
<path class="st0" d="M346.6,32.3h1.3v1.3c0.5-1,1.6-1.6,2.7-1.5c1.8,0,2.7,0.9,2.7,2.9v5.4h-1.3V35c0-1.2-0.4-1.7-1.5-1.7
	c-0.6,0-1.3,0.2-1.7,0.6c-0.5,0.4-0.7,1.1-0.7,1.7v4.7h-1.3L346.6,32.3z"/>
<path class="st0" d="M360.6,36.5l-1.8,0.2c-1.5,0.1-2.5,0.3-2.5,1.5c0,0.9,0.6,1.3,1.5,1.3c1.5,0,2.7-1.1,2.7-2.2L360.6,36.5z
	 M355.5,34.7c0-1.6,1.2-2.6,3.3-2.6c2.3,0,3.1,1.2,3.1,2.6v5.6h-1.3v-1.2c-0.6,0.9-1.7,1.5-2.8,1.4c-1.5,0-2.7-0.8-2.7-2.4
	c0-2.1,1.8-2.4,3.6-2.6l1.9-0.2v-0.7c0-0.9-0.4-1.4-1.8-1.4s-2,0.4-2,1.4L355.5,34.7z"/>
<rect x="364.2" y="29.3" class="st0" width="1.3" height="11.1"/>
<path class="st0" d="M248.7,55.6v-1.4c0-0.7-0.3-1.3-0.8-1.8c-0.5-0.5-1.2-0.7-1.8-0.6c-1.5,0-2.2,1.1-2.2,3.1
	c0,1.9,0.6,3.1,2.3,3.1c0.6,0.1,1.3-0.2,1.8-0.6S248.7,56.2,248.7,55.6L248.7,55.6z M242.5,54.8c0-2.6,1.2-4.2,3.4-4.2
	c1.1-0.1,2.1,0.5,2.7,1.4v-4.3h1.3v11.1h-1.3v-1.2c-0.5,0.9-1.6,1.5-2.7,1.4C243.8,59.1,242.5,57.5,242.5,54.8z"/>
<path class="st0" d="M253.3,54.3h4.5c0-1.7-0.5-2.5-2.1-2.5S253.3,52.6,253.3,54.3L253.3,54.3z M258.6,57.4v1.2
	c-0.8,0.3-1.7,0.5-2.6,0.5c-3,0-4.1-1.4-4.1-4.2c0-2.7,1.2-4.2,3.7-4.2s3.3,1.5,3.3,4c0,0.2,0,0.5,0,0.8h-5.7c0,1.7,0.8,2.5,2.8,2.5
	C256.9,57.9,257.8,57.7,258.6,57.4L258.6,57.4z"/>
<polygon class="st0" points="272.3,58.9 266.9,50.1 266.9,58.9 265.5,58.9 265.5,47.8 266.9,47.8 272.3,56.5 272.3,47.8 273.6,47.8 
	273.6,58.9 "/>
<path class="st0" d="M276.9,54.3h4.5c0-1.7-0.5-2.5-2.1-2.5C277.8,51.7,277,52.6,276.9,54.3L276.9,54.3z M282.3,57.4v1.2
	c-0.8,0.3-1.7,0.5-2.6,0.5c-3,0-4.1-1.4-4.1-4.2c0-2.7,1.2-4.2,3.7-4.2c2.5,0,3.3,1.5,3.3,4c0,0.2,0,0.5,0,0.8h-5.7
	c0,1.7,0.8,2.5,2.8,2.5C280.6,57.9,281.5,57.7,282.3,57.4L282.3,57.4z"/>
<path class="st0" d="M291.1,58.9h-1.3v-1.3c-0.5,1-1.5,1.5-2.5,1.5c-1.8,0-2.7-0.9-2.7-2.9v-5.4h1.3v5.4c0,1.2,0.5,1.7,1.6,1.7
	c0.6,0,1.3-0.2,1.7-0.6c0.5-0.4,0.7-1.1,0.7-1.7v-4.7h1.3L291.1,58.9z"/>
<path class="st0" d="M293.4,50.8h1.3v1.5c0.4-1.1,1.5-1.9,2.7-1.7l0,1.4c-1.9,0-2.8,0.9-2.8,2.8v4.2h-1.3L293.4,50.8z"/>
<path class="st0" d="M304.3,54.8c0-1.9-0.7-3.1-2.3-3.1c-1.7,0-2.3,1.1-2.3,3.1c0,1.9,0.7,3.1,2.3,3.1
	C303.7,57.9,304.3,56.8,304.3,54.8L304.3,54.8z M305.7,54.8c0,2.7-1.2,4.2-3.7,4.2c-2.5,0-3.7-1.5-3.7-4.2c0-2.7,1.2-4.2,3.7-4.2
	C304.5,50.6,305.7,52.2,305.7,54.8z"/>
<path class="st0" d="M312.8,56.4h1.3c0,1.7-1.2,2.7-3.3,2.7c-2.4,0-3.7-1.5-3.7-4.2c0-2.7,1.2-4.2,3.8-4.2c1.9,0,3.1,1,3.1,2.7h-1.3
	c0-0.9-0.6-1.5-1.8-1.5c-1.8,0-2.4,1.1-2.4,3.1c0,1.9,0.8,3.1,2.4,3.1C312.1,57.9,312.8,57.3,312.8,56.4z"/>
<path class="st0" d="M315.9,50.8h1.3v8.1h-1.3V50.8z M315.9,47.8h1.4v1.7h-1.4V47.8z"/>
<path class="st0" d="M324.7,49.9h-1l-1.1-1.1l-1.1,1.1h-1l1.5-2.2h1L324.7,49.9z M320.4,54.3h4.5c0-1.7-0.5-2.5-2.1-2.5
	S320.5,52.6,320.4,54.3L320.4,54.3z M325.8,57.4v1.2c-0.8,0.3-1.7,0.5-2.6,0.5c-3,0-4.1-1.4-4.1-4.2c0-2.7,1.2-4.2,3.7-4.2
	s3.3,1.5,3.3,4c0,0.2,0,0.5,0,0.8h-5.7c0,1.7,0.8,2.5,2.8,2.5C324.1,57.9,325,57.7,325.8,57.4L325.8,57.4z"/>
<path class="st0" d="M328.1,50.8h1.3v1.3c0.5-1,1.6-1.6,2.7-1.5c1.8,0,2.7,0.9,2.7,2.9v5.4h-1.3v-5.4c0-1.2-0.4-1.7-1.5-1.7
	c-0.6,0-1.3,0.2-1.8,0.6c-0.5,0.4-0.7,1.1-0.7,1.7v4.7H328L328.1,50.8z"/>
<path class="st0" d="M342.2,56.4h1.3c0,1.7-1.2,2.7-3.3,2.7c-2.4,0-3.7-1.5-3.7-4.2c0-2.7,1.2-4.2,3.8-4.2c1.9,0,3.1,1,3.1,2.7h-1.3
	c0-0.9-0.6-1.5-1.8-1.5c-1.8,0-2.4,1.1-2.4,3.1c0,1.9,0.8,3.1,2.4,3.1C341.5,57.9,342.2,57.3,342.2,56.4z"/>
<path class="st0" d="M345.3,50.8h1.3v8.1h-1.3L345.3,50.8z M345.3,47.8h1.4v1.7h-1.4V47.8z"/>
<path class="st0" d="M354,55l-1.8,0.2c-1.5,0.1-2.5,0.3-2.5,1.5c0,0.9,0.6,1.3,1.5,1.3c1.5,0,2.7-1.1,2.7-2.2L354,55z M348.9,53.2
	c0-1.6,1.2-2.6,3.3-2.6c2.3,0,3.1,1.2,3.1,2.6v5.6h-1.2v-1.2c-0.6,0.9-1.7,1.5-2.8,1.4c-1.5,0-2.7-0.8-2.7-2.4
	c0-2.1,1.8-2.4,3.6-2.6l1.9-0.2v-0.7c0-0.9-0.4-1.4-1.8-1.4s-2,0.4-2,1.4L348.9,53.2z"/>
<polygon class="st0" points="250,67.5 246.7,67.5 246.7,77.3 245.3,77.3 245.3,67.5 242,67.5 242,66.2 250,66.2 "/>
<path class="st0" d="M250.2,69.2h1.3v1.5c0.4-1.1,1.5-1.9,2.7-1.7v1.4c-1.9,0-2.8,0.9-2.8,2.8v4.2h-1.3L250.2,69.2z"/>
<path class="st0" d="M260.5,73.4l-1.8,0.2c-1.5,0.1-2.5,0.3-2.5,1.5c0,0.9,0.6,1.3,1.5,1.3c1.5,0,2.7-1.1,2.7-2.2L260.5,73.4z
	 M255.4,71.7c0-1.6,1.2-2.6,3.3-2.6c2.3,0,3.1,1.2,3.1,2.6v5.6h-1.3v-1.2c-0.6,0.9-1.7,1.5-2.8,1.4c-1.5,0-2.7-0.8-2.7-2.4
	c0-2.1,1.8-2.4,3.6-2.6l1.9-0.2v-0.7c0-0.9-0.4-1.4-1.8-1.4s-2,0.4-2,1.4L255.4,71.7z"/>
<path class="st0" d="M264.1,69.2h1.3v1.3c0.5-1,1.6-1.6,2.7-1.5c1.8,0,2.7,0.9,2.7,2.9v5.4h-1.3V72c0-1.2-0.4-1.7-1.5-1.7
	c-0.6,0-1.3,0.2-1.8,0.6s-0.7,1.1-0.7,1.7l0,4.7h-1.3V69.2z"/>
<path class="st0" d="M277.9,75.1c0-0.8-0.6-1-1.7-1.2l-0.8-0.1c-1.7-0.2-2.7-0.8-2.7-2.3c0-1.5,1.1-2.3,3.2-2.3
	c1.9,0,3.1,0.7,3.2,2.4h-1.3c0-0.9-0.7-1.2-1.9-1.2c-1.4,0-1.9,0.5-1.9,1.2c0,0.7,0.7,1,1.7,1.2l0.7,0.1c1.9,0.2,2.8,0.9,2.8,2.4
	c0,1.6-1.2,2.4-3.3,2.4s-3.4-0.8-3.5-2.6h1.3c0,1,1,1.5,2.2,1.5S277.9,75.9,277.9,75.1z"/>
<rect x="281.1" y="66.2" class="st0" width="1.3" height="11.1"/>
<path class="st0" d="M289.8,73.4l-1.8,0.2c-1.5,0.1-2.5,0.3-2.5,1.5c0,0.9,0.6,1.3,1.5,1.3c1.5,0,2.7-1.1,2.7-2.2L289.8,73.4z
	 M284.7,71.7c0-1.6,1.2-2.6,3.3-2.6c2.3,0,3.1,1.2,3.1,2.6v5.6h-1.3v-1.2c-0.6,0.9-1.7,1.5-2.8,1.4c-1.5,0-2.7-0.8-2.7-2.4
	c0-2.1,1.8-2.4,3.6-2.6l1.9-0.2v-0.7c0-0.9-0.4-1.4-1.8-1.4s-2,0.4-2,1.4L284.7,71.7z"/>
<path class="st0" d="M298.7,74.8h1.3c0,1.7-1.2,2.7-3.3,2.7c-2.4,0-3.7-1.5-3.7-4.2c0-2.7,1.2-4.2,3.8-4.2c1.9,0,3.1,1,3.1,2.7h-1.3
	c0-0.9-0.6-1.5-1.8-1.5c-1.8,0-2.4,1.1-2.4,3.1c0,1.9,0.8,3.1,2.4,3.1C297.9,76.4,298.6,75.8,298.7,74.8z"/>
<path class="st0" d="M301.7,69.2h1.3v8.1h-1.3L301.7,69.2z M301.7,66.2h1.4v1.7h-1.4V66.2z"/>
<path class="st0" d="M311,73.3c0-1.9-0.7-3.1-2.3-3.1s-2.3,1.1-2.3,3.1c0,1.9,0.7,3.1,2.3,3.1S311,75.2,311,73.3z M312.3,73.3
	c0,2.7-1.2,4.2-3.7,4.2S305,76,305,73.3c0-2.7,1.2-4.2,3.7-4.2S312.3,70.6,312.3,73.3z"/>
<path class="st0" d="M314.2,69.2h1.3v1.3c0.5-1,1.6-1.6,2.7-1.5c1.8,0,2.7,0.9,2.7,2.9v5.4h-1.3V72c0-1.2-0.4-1.7-1.5-1.7
	c-0.6,0-1.3,0.2-1.8,0.6s-0.7,1.1-0.7,1.7v4.7h-1.3L314.2,69.2z"/>
<path class="st0" d="M328.2,73.4l-1.8,0.2c-1.5,0.1-2.5,0.3-2.5,1.5c0,0.9,0.6,1.3,1.5,1.3c1.5,0,2.7-1.1,2.7-2.2L328.2,73.4z
	 M323.1,71.7c0-1.6,1.2-2.6,3.3-2.6c2.3,0,3.1,1.2,3.1,2.6v5.6h-1.3v-1.2c-0.6,0.9-1.7,1.5-2.8,1.4c-1.5,0-2.7-0.8-2.7-2.4
	c0-2.1,1.8-2.4,3.6-2.6l1.9-0.2v-0.7c0-0.9-0.4-1.4-1.8-1.4s-2,0.4-2,1.4L323.1,71.7z"/>
<rect x="331.8" y="66.2" class="st0" width="1.3" height="11.1"/>
<path class="st2" d="M144.3,18.6V63l-29.1-44.4H92.1v1.3l5.4,9v68.3h4.6c0-2.5,1.9-5.3,5.1-5.3c1.4,0,2.8,0.5,3.8,1.5
	c1,1,1.6,2.4,1.6,3.8h4.6v-40l27.2,40H164V18.6H144.3z"/>
<path class="st0" d="M107.3,102.3c-2.6-0.1-4.6-2.2-4.6-4.7c0-2.2,1.7-4.9,4.6-4.9c1.3,0,2.5,0.5,3.4,1.4c0.9,0.9,1.4,2.2,1.4,3.4
	c0,1.3-0.5,2.5-1.4,3.4C109.8,101.8,108.5,102.3,107.3,102.3z M143.7,88.9l-3,3.1l1.5,2.3h-25c-1.3-3.8-4.7-6.9-10-6.9
	c-4.4-0.1-8.3,2.7-9.6,6.9H72.4l1.7-2.2L71,88.9l-6.9,8.4l6.9,8.4l3-3.1l-1.5-2.3h25c1.2,4.4,5.2,7.4,9.8,7.3
	c4.6,0.2,8.8-2.8,10.1-7.3h24.9l-1.7,2.2l3.1,3.1l6.9-8.4L143.7,88.9z"/>
</svg>
